# xmcd
#
# Track frame offsets:
#	182
#	13864
#	27609
#	41976
#	55803
#	71519
#	85199
#	100102
#	115084
#	127549
#	140792
#	152211
#	164516
#	179105
#	192715
#	206079
#	217758
#	231266
#	246030
#	260542
#	274414
#	286580
#	299465
#
# Disc length: 4170 seconds
#
# Revision: 1
# Processed by: cddbd v1.5PL3 Copyright (c) Steve Scherf et al.
# Submitted via: EasyCDDAExtractor 6.5.2.1
#
DISCID=65104817
DTITLE=Saunders King - The Chronological (1942 - 1948)
DYEAR=1900
DGENRE=
TTITLE0=Big Fat Butterfly
TTITLE1=Ambling With Herb
TTITLE2=Summertime
TTITLE3=Swinging Door Groove
TTITLE4=SK Blues - Part 1
TTITLE5=SK Blues - Part 2
TTITLE6=What's Your Story, Morning Glory
TTITLE7=Jive At Eleven Five
TTITLE8=What A Life
TTITLE9=After Hours
TTITLE10=I'll Know Just What To Do
TTITLE11=Why Was I Born
TTITLE12=SK Jumps - Part1
TTITLE13=SK Jumps - Part 2
TTITLE14=I'd Climb The Highest Mountain
TTITLE15=Lazy Woman Blues
TTITLE16=I've Had My Moments
TTITLE17=The Atom Leaps
TTITLE18=Lonesome Pillow Blues - Part 1
TTITLE19=Lonesome Pillow Blues - Part 2
TTITLE20=Stay Gone Blues
TTITLE21=Write Me A Letter Blues
TTITLE22=Swingin
EXTD=
EXTT0=
EXTT1=
EXTT2=
EXTT3=
EXTT4=
EXTT5=
EXTT6=
EXTT7=
EXTT8=
EXTT9=
EXTT10=
EXTT11=
EXTT12=
EXTT13=
EXTT14=
EXTT15=
EXTT16=
EXTT17=
EXTT18=
EXTT19=
EXTT20=
EXTT21=
EXTT22=
PLAYORDER=
